<svg width="245" height="234" viewBox="0 0 245 234" fill="none" xmlns="http://www.w3.org/2000/svg">
<path d="M52.5 87.5L112.5 53L172 87.3453L112 121.711L52.5 87.5Z" fill="#2643CF" stroke="#0481FF"/>
<path d="M52.5 157.5L111.5 192V122.5L52 88.366L52.5 157.5Z" fill="#D9D9D9" stroke="#0481FF"/>
<path d="M112.5 192V122.5L172.5 88.2113L173 157.5L112.5 192Z" fill="url(#paint0_linear_2_5)" stroke="#0481FF"/>
<path d="M123.5 128.5L183.5 94L243 128.345L183 162.711L123.5 128.5Z" fill="#046AEB" stroke="#0481FF"/>
<path d="M123.5 198.5L182.5 233V163.5L123 129.366L123.5 198.5Z" fill="#D9D9D9" stroke="#0481FF"/>
<path d="M183.5 233V163.5L243.5 129.211L244 198.5L183.5 233Z" fill="url(#paint1_linear_2_5)" stroke="#0481FF"/>
<path d="M133.5 134.711L75.5 100.098L75 31L135.5 3L195.711 30.5L196 100.345L133.5 134.711Z" fill="url(#paint2_linear_2_5)"/>
<path d="M134.866 65.5L75.5 100.098M134.866 65.5L196 100.345M134.866 65.5L135.5 3M75.5 100.098L133.5 134.711L196 100.345M75.5 100.098L75 31L135.5 3M196 100.345L195.711 30.5L135.5 3" stroke="#0316A3"/>
<path d="M75.5 100.5L134.5 135V65.5L75.134 31.5L75.5 100.5Z" fill="url(#paint3_linear_2_5)" stroke="#0316A3"/>
<path d="M135.5 135V65.5L195.5 31.2113L196 100.5L135.5 135Z" fill="url(#paint4_linear_2_5)" stroke="#0316A3"/>
<path d="M119 101.68L57.5964 66.3839L74.5 30.6797L133.864 65.3839L119 101.68Z" fill="#007FFF"/>
<path d="M151.539 101.416L212 65.5L196.039 30.4155L136.675 65.1197L151.539 101.416Z" fill="#006CD8"/>
<defs>
<linearGradient id="paint0_linear_2_5" x1="119.5" y1="117" x2="183.5" y2="183" gradientUnits="userSpaceOnUse">
<stop stop-color="#0481FF"/>
<stop offset="0.0432692" stop-color="#020A99"/>
</linearGradient>
<linearGradient id="paint1_linear_2_5" x1="190.5" y1="158" x2="254.5" y2="224" gradientUnits="userSpaceOnUse">
<stop stop-color="#0481FF"/>
<stop offset="0.528846" stop-color="#020A99"/>
</linearGradient>
<linearGradient id="paint2_linear_2_5" x1="135.5" y1="3" x2="135.5" y2="134.711" gradientUnits="userSpaceOnUse">
<stop stop-color="white"/>
<stop offset="1" stop-color="#080808"/>
</linearGradient>
<linearGradient id="paint3_linear_2_5" x1="104.817" y1="31.5" x2="104.817" y2="135" gradientUnits="userSpaceOnUse">
<stop stop-color="#036AEB"/>
<stop offset="1" stop-color="#020998"/>
</linearGradient>
<linearGradient id="paint4_linear_2_5" x1="142.5" y1="60" x2="206.5" y2="126" gradientUnits="userSpaceOnUse">
<stop stop-color="#0481FF"/>
<stop offset="0.528846" stop-color="#020A99"/>
</linearGradient>
</defs>
</svg>
